<?xml version="1.0" encoding="utf-8"?>
<!-- Generator: Adobe Illustrator 26.3.1, SVG Export Plug-In . SVG Version: 6.00 Build 0)  -->
<!DOCTYPE svg PUBLIC "-//W3C//DTD SVG 1.1//EN" "http://www.w3.org/Graphics/SVG/1.1/DTD/svg11.dtd" [
	<!ENTITY ns_extend "http://ns.adobe.com/Extensibility/1.0/">
	<!ENTITY ns_ai "http://ns.adobe.com/AdobeIllustrator/10.0/">
	<!ENTITY ns_graphs "http://ns.adobe.com/Graphs/1.0/">
	<!ENTITY ns_vars "http://ns.adobe.com/Variables/1.0/">
	<!ENTITY ns_imrep "http://ns.adobe.com/ImageReplacement/1.0/">
	<!ENTITY ns_sfw "http://ns.adobe.com/SaveForWeb/1.0/">
	<!ENTITY ns_custom "http://ns.adobe.com/GenericCustomNamespace/1.0/">
	<!ENTITY ns_adobe_xpath "http://ns.adobe.com/XPath/1.0/">
]>
<svg version="1.1" id="Layer_1" xmlns:x="&ns_extend;" xmlns:i="&ns_ai;" xmlns:graph="&ns_graphs;"
	 xmlns="http://www.w3.org/2000/svg" xmlns:xlink="http://www.w3.org/1999/xlink" x="0px" y="0px" viewBox="0 0 300 300"
	 style="enable-background:new 0 0 300 300;" xml:space="preserve">
<style type="text/css">
	.st0{fill-rule:evenodd;clip-rule:evenodd;fill:#7A7B7F;}
	.st1{fill-rule:evenodd;clip-rule:evenodd;fill:#A4A4A4;}
	.st2{fill-rule:evenodd;clip-rule:evenodd;fill:#D0D0D0;}
	.st3{fill-rule:evenodd;clip-rule:evenodd;fill:none;}
	.st4{fill-rule:evenodd;clip-rule:evenodd;fill:#DCDCDC;}
	.st5{fill-rule:evenodd;clip-rule:evenodd;fill:#FFFFFF;}
	
		.st6{fill-rule:evenodd;clip-rule:evenodd;fill:none;stroke:#353740;stroke-width:9.8401;stroke-linecap:round;stroke-linejoin:round;stroke-miterlimit:10;}
	.st7{fill:none;stroke:#000000;stroke-width:2.4;stroke-miterlimit:10;}
	.st8{fill:none;stroke:#000000;stroke-miterlimit:10;}
	.st9{fill-rule:evenodd;clip-rule:evenodd;}
	.st10{fill:none;}
	.st11{fill:#F6F8FA;stroke:#D8D8D8;stroke-miterlimit:10;}
	.st12{fill:#004C97;}
	.st13{fill:#FD961F;}
	.st14{fill:none;stroke:#000000;stroke-width:4;stroke-miterlimit:10;}
	.st15{fill:none;stroke:#000000;stroke-width:2;stroke-miterlimit:10;}
	.st16{fill:#FFCC00;}
	.st17{fill:#FFFFFF;}
	.st18{fill:none;stroke:#FFFFFF;stroke-width:8.7636;stroke-miterlimit:10;}
	.st19{fill:#22C000;}
	.st20{fill:none;stroke:#FFFFFF;stroke-width:13;stroke-miterlimit:10;}
	.st21{fill:none;stroke:#FFFFFF;stroke-width:13.5649;stroke-miterlimit:10;}
	.st22{fill:#004E96;}
	.st23{fill:#00AAFF;}
	.st24{fill:#FF00CC;}
	.st25{fill:#E50580;}
	.st26{fill:#FF6482;}
	.st27{fill:#FC7C00;}
	.st28{fill:#00305B;}
	.st29{fill:#00CCCC;}
	.st30{fill:none;stroke:#FFFFFF;stroke-width:7.869;stroke-miterlimit:10;}
	.st31{fill:#FD7EFB;}
	.st32{fill:none;stroke:#FFFFFF;stroke-width:5;stroke-miterlimit:10;}
	.st33{fill:#1E7EFB;}
	.st34{fill:none;stroke:#FFFFFF;stroke-width:5.6022;stroke-miterlimit:10;}
	.st35{fill:#D6BFA7;}
	.st36{fill:#C73963;}
</style>
<metadata>
	<sfw  xmlns="&ns_sfw;">
		<slices></slices>
		<sliceSourceBounds  bottomLeftOrigin="true" height="4816.1" width="8601.4" x="-3920.5" y="-5562.9"></sliceSourceBounds>
	</sfw>
</metadata>
<circle class="st23" cx="150" cy="150" r="145.7"/>
<g>
	<g>
		<path class="st18" d="M169.8,146.6l-1.5-12.1c-0.8-0.3-1.6-0.7-2.3-1.1c-0.7-0.4-1.4-0.9-2.1-1.4l-11.3,4.7l-10.4-18l9.8-7.4
			c-0.1-0.4-0.1-0.9-0.1-1.3c0-0.4,0-0.8,0-1.3s0-0.9,0-1.3c0-0.4,0-0.8,0.1-1.3l-9.8-7.4l10.4-18l11.3,4.7c0.7-0.5,1.4-1,2.2-1.4
			c0.8-0.4,1.5-0.8,2.3-1.1l1.5-12.1h20.8l1.5,12.1c0.8,0.3,1.6,0.7,2.3,1.1c0.7,0.4,1.4,0.9,2.1,1.4l11.3-4.7l10.4,18l-9.8,7.4
			c0.1,0.4,0.1,0.9,0.1,1.3c0,0.4,0,0.8,0,1.3s0,0.9,0,1.3c0,0.4-0.1,0.8-0.2,1.3l9.8,7.4l-10.4,18l-11.2-4.7
			c-0.7,0.5-1.4,1-2.2,1.4c-0.8,0.4-1.5,0.8-2.3,1.1l-1.5,12.1H169.8z M180.3,108.8L180.3,108.8L180.3,108.8L180.3,108.8
			L180.3,108.8L180.3,108.8L180.3,108.8L180.3,108.8L180.3,108.8L180.3,108.8L180.3,108.8L180.3,108.8L180.3,108.8L180.3,108.8
			L180.3,108.8L180.3,108.8L180.3,108.8z"/>
		<ellipse class="st18" cx="180.3" cy="108.8" rx="10.9" ry="10.9"/>
	</g>
	<g>
		<path class="st18" d="M113.5,229l-1.7-13.9c-0.9-0.4-1.8-0.8-2.7-1.3c-0.8-0.5-1.7-1.1-2.5-1.6l-13,5.4l-12-20.6l11.2-8.5
			c-0.1-0.5-0.1-1-0.1-1.5c0-0.5,0-1,0-1.5s0-1,0-1.5c0-0.5,0-1,0.1-1.5l-11.2-8.5l12-20.6l13,5.4c0.8-0.6,1.6-1.1,2.5-1.6
			s1.7-0.9,2.6-1.3l1.7-13.9h24l1.7,13.9c0.9,0.4,1.8,0.8,2.7,1.3c0.8,0.5,1.7,1.1,2.4,1.6l13-5.4l12,20.6l-11.2,8.5
			c0.1,0.5,0.1,1,0.1,1.5c0,0.5,0,1,0,1.5s0,1,0,1.5c0,0.5-0.1,1-0.2,1.5l11.2,8.5l-12,20.6l-12.9-5.4c-0.8,0.6-1.6,1.1-2.5,1.6
			c-0.9,0.5-1.7,0.9-2.6,1.3l-1.7,13.9H113.5z M125.4,185.5L125.4,185.5L125.4,185.5L125.4,185.5L125.4,185.5L125.4,185.5
			L125.4,185.5L125.4,185.5L125.4,185.5L125.4,185.5L125.4,185.5L125.4,185.5L125.4,185.5L125.4,185.5L125.4,185.5L125.4,185.5
			L125.4,185.5z"/>
		<ellipse class="st18" cx="125.4" cy="185.5" rx="12.6" ry="12.5"/>
	</g>
</g>
</svg>
