<?xml version="1.0" encoding="utf-8"?>
<!-- Generator: Adobe Illustrator 26.3.1, SVG Export Plug-In . SVG Version: 6.00 Build 0)  -->
<!DOCTYPE svg PUBLIC "-//W3C//DTD SVG 1.1//EN" "http://www.w3.org/Graphics/SVG/1.1/DTD/svg11.dtd" [
	<!ENTITY ns_extend "http://ns.adobe.com/Extensibility/1.0/">
	<!ENTITY ns_ai "http://ns.adobe.com/AdobeIllustrator/10.0/">
	<!ENTITY ns_graphs "http://ns.adobe.com/Graphs/1.0/">
	<!ENTITY ns_vars "http://ns.adobe.com/Variables/1.0/">
	<!ENTITY ns_imrep "http://ns.adobe.com/ImageReplacement/1.0/">
	<!ENTITY ns_sfw "http://ns.adobe.com/SaveForWeb/1.0/">
	<!ENTITY ns_custom "http://ns.adobe.com/GenericCustomNamespace/1.0/">
	<!ENTITY ns_adobe_xpath "http://ns.adobe.com/XPath/1.0/">
]>
<svg version="1.1" id="Layer_1" xmlns:x="&ns_extend;" xmlns:i="&ns_ai;" xmlns:graph="&ns_graphs;"
	 xmlns="http://www.w3.org/2000/svg" xmlns:xlink="http://www.w3.org/1999/xlink" x="0px" y="0px" viewBox="0 0 300 300"
	 style="enable-background:new 0 0 300 300;" xml:space="preserve">
<style type="text/css">
	.st0{fill:#C73963;}
	.st1{fill-rule:evenodd;clip-rule:evenodd;fill:#7A7B7F;}
	.st2{fill-rule:evenodd;clip-rule:evenodd;fill:#A4A4A4;}
	.st3{fill-rule:evenodd;clip-rule:evenodd;fill:#D0D0D0;}
	.st4{fill-rule:evenodd;clip-rule:evenodd;fill:none;}
	.st5{fill-rule:evenodd;clip-rule:evenodd;fill:#DCDCDC;}
	.st6{fill-rule:evenodd;clip-rule:evenodd;fill:#FFFFFF;}
	
		.st7{fill-rule:evenodd;clip-rule:evenodd;fill:none;stroke:#353740;stroke-width:9.8401;stroke-linecap:round;stroke-linejoin:round;stroke-miterlimit:10;}
	.st8{fill:none;stroke:#000000;stroke-width:2.4;stroke-miterlimit:10;}
	.st9{fill:none;stroke:#000000;stroke-miterlimit:10;}
	.st10{fill-rule:evenodd;clip-rule:evenodd;}
	.st11{fill:none;}
	.st12{fill:#F6F8FA;stroke:#D8D8D8;stroke-miterlimit:10;}
	.st13{fill:#004C97;}
	.st14{fill:#FD961F;}
	.st15{fill:none;stroke:#000000;stroke-width:4;stroke-miterlimit:10;}
	.st16{fill:none;stroke:#000000;stroke-width:2;stroke-miterlimit:10;}
	.st17{fill:#FFCC00;}
	.st18{fill:#FFFFFF;}
	.st19{fill:#22C000;}
	.st20{fill:#E50580;}
	.st21{fill:#FF00CC;}
	.st22{fill:none;stroke:#FFFFFF;stroke-width:13;stroke-miterlimit:10;}
	.st23{fill:none;stroke:#FFFFFF;stroke-width:13.5649;stroke-miterlimit:10;}
	.st24{fill:#004E96;}
	.st25{fill:#00AAFF;}
	.st26{fill:#FF6482;}
	.st27{fill:#FC7C00;}
	.st28{fill:#00305B;}
	.st29{fill:#00CCCC;}
	.st30{fill:none;stroke:#FFFFFF;stroke-width:8.7636;stroke-miterlimit:10;}
	.st31{fill:none;stroke:#FFFFFF;stroke-width:10.0771;stroke-miterlimit:10;}
	.st32{fill:none;stroke:#FFFFFF;stroke-width:7.869;stroke-miterlimit:10;}
	.st33{fill:#FD7EFB;}
	.st34{fill:none;stroke:#FFFFFF;stroke-width:5;stroke-miterlimit:10;}
	.st35{fill:#1E7EFB;}
	.st36{fill:none;stroke:#FFFFFF;stroke-width:5.6022;stroke-miterlimit:10;}
	.st37{fill:#D6BFA7;}
</style>
<metadata>
	<sfw  xmlns="&ns_sfw;">
		<slices></slices>
		<sliceSourceBounds  bottomLeftOrigin="true" height="4816.1" width="8601.4" x="-3920.5" y="-5562.9"></sliceSourceBounds>
	</sfw>
</metadata>
<circle class="st0" cx="150" cy="150" r="145.7"/>
<g>
	<circle class="st18" cx="152.9" cy="122.1" r="8.7"/>
	<circle class="st18" cx="119" cy="178.4" r="8.7"/>
	<circle class="st18" cx="181.2" cy="178.4" r="8.7"/>
	<path class="st32" d="M143.8,149c-11.5-3.8-19.8-14.6-19.8-27.4c0-15.9,12.9-28.9,28.9-28.9s28.9,12.9,28.9,28.9"/>
	<path class="st32" d="M165.1,154.4c4.6-3.1,10.2-4.9,16.1-4.9c15.9,0,28.9,12.9,28.9,28.9s-12.9,28.9-28.9,28.9
		c-10,0-18.8-5-23.9-12.7"/>
	<path class="st32" d="M147,172.3c0.4,2,0.6,4,0.6,6.1c0,15.9-12.9,28.9-28.9,28.9s-28.9-12.9-28.9-28.9c0-13.6,9.4-25,22-28"/>
	<line class="st32" x1="147.7" y1="178.4" x2="180.7" y2="178.4"/>
	<line class="st32" x1="152.9" y1="122.1" x2="170" y2="151.8"/>
	<line class="st32" x1="118.8" y1="178.8" x2="141" y2="145.6"/>
</g>
</svg>
