<?xml version="1.0" encoding="utf-8"?>
<!-- Generator: Adobe Illustrator 26.3.1, SVG Export Plug-In . SVG Version: 6.00 Build 0)  -->
<!DOCTYPE svg PUBLIC "-//W3C//DTD SVG 1.1//EN" "http://www.w3.org/Graphics/SVG/1.1/DTD/svg11.dtd" [
	<!ENTITY ns_extend "http://ns.adobe.com/Extensibility/1.0/">
	<!ENTITY ns_ai "http://ns.adobe.com/AdobeIllustrator/10.0/">
	<!ENTITY ns_graphs "http://ns.adobe.com/Graphs/1.0/">
	<!ENTITY ns_vars "http://ns.adobe.com/Variables/1.0/">
	<!ENTITY ns_imrep "http://ns.adobe.com/ImageReplacement/1.0/">
	<!ENTITY ns_sfw "http://ns.adobe.com/SaveForWeb/1.0/">
	<!ENTITY ns_custom "http://ns.adobe.com/GenericCustomNamespace/1.0/">
	<!ENTITY ns_adobe_xpath "http://ns.adobe.com/XPath/1.0/">
]>
<svg version="1.1" id="Layer_1" xmlns:x="&ns_extend;" xmlns:i="&ns_ai;" xmlns:graph="&ns_graphs;"
	 xmlns="http://www.w3.org/2000/svg" xmlns:xlink="http://www.w3.org/1999/xlink" x="0px" y="0px" viewBox="0 0 300 300"
	 style="enable-background:new 0 0 300 300;" xml:space="preserve">
<style type="text/css">
	.st0{fill-rule:evenodd;clip-rule:evenodd;fill:#7A7B7F;}
	.st1{fill-rule:evenodd;clip-rule:evenodd;fill:#A4A4A4;}
	.st2{fill-rule:evenodd;clip-rule:evenodd;fill:#D0D0D0;}
	.st3{fill-rule:evenodd;clip-rule:evenodd;fill:none;}
	.st4{fill-rule:evenodd;clip-rule:evenodd;fill:#DCDCDC;}
	.st5{fill-rule:evenodd;clip-rule:evenodd;fill:#FFFFFF;}
	
		.st6{fill-rule:evenodd;clip-rule:evenodd;fill:none;stroke:#353740;stroke-width:9.8401;stroke-linecap:round;stroke-linejoin:round;stroke-miterlimit:10;}
	.st7{fill:none;stroke:#000000;stroke-width:2.4;stroke-miterlimit:10;}
	.st8{fill:none;stroke:#000000;stroke-miterlimit:10;}
	.st9{fill-rule:evenodd;clip-rule:evenodd;}
	.st10{fill:none;}
	.st11{fill:#F6F8FA;stroke:#D8D8D8;stroke-miterlimit:10;}
	.st12{fill:#004C97;}
	.st13{fill:#FD961F;}
	.st14{fill:none;stroke:#000000;stroke-width:4;stroke-miterlimit:10;}
	.st15{fill:none;stroke:#000000;stroke-width:2;stroke-miterlimit:10;}
	.st16{fill:#FFCC00;}
	.st17{fill:#FFFFFF;}
	.st18{fill:none;stroke:#FFFFFF;stroke-width:8.7636;stroke-miterlimit:10;}
	.st19{fill:#22C000;}
	.st20{fill:none;stroke:#FFFFFF;stroke-width:13;stroke-miterlimit:10;}
	.st21{fill:none;stroke:#FFFFFF;stroke-width:13.5649;stroke-miterlimit:10;}
	.st22{fill:#004E96;}
	.st23{fill:#00AAFF;}
	.st24{fill:#FF00CC;}
	.st25{fill:#E50580;}
	.st26{fill:#FF6482;}
	.st27{fill:#FC7C00;}
	.st28{fill:#00305B;}
	.st29{fill:#00CCCC;}
	.st30{fill:none;stroke:#FFFFFF;stroke-width:7.869;stroke-miterlimit:10;}
	.st31{fill:#FD7EFB;}
	.st32{fill:none;stroke:#FFFFFF;stroke-width:5;stroke-miterlimit:10;}
	.st33{fill:#1E7EFB;}
	.st34{fill:none;stroke:#FFFFFF;stroke-width:5.6022;stroke-miterlimit:10;}
	.st35{fill:#D6BFA7;}
	.st36{fill:#C73963;}
</style>
<metadata>
	<sfw  xmlns="&ns_sfw;">
		<slices></slices>
		<sliceSourceBounds  bottomLeftOrigin="true" height="4816.1" width="8601.4" x="-3920.5" y="-5562.9"></sliceSourceBounds>
	</sfw>
</metadata>
<circle class="st19" cx="150" cy="150" r="145.7"/>
<g>
	<path class="st18" d="M155.4,204.4H82.8v-19.8c0-3.9,1-7.6,3-11c2-3.4,4.8-6,8.3-7.8c6-3.1,12.8-5.7,20.4-7.8
		c7.6-2.1,15.9-3.2,25-3.2c3.5,0,7,0.2,10.4,0.5c3.4,0.4,6.6,0.9,9.8,1.6"/>
	<polyline class="st18" points="224.5,157.5 178.8,203.2 154.4,178.7 	"/>
	<path class="st18" d="M139.5,147.7c-7.8,0-14.5-2.8-20-8.3c-5.6-5.6-8.3-12.2-8.3-20s2.8-14.5,8.3-20c5.6-5.6,12.2-8.3,20-8.3
		s14.5,2.8,20,8.3c5.6,5.6,8.3,12.2,8.3,20s-2.8,14.5-8.3,20C153.9,144.9,147.3,147.7,139.5,147.7z"/>
</g>
</svg>
