<?xml version="1.0" encoding="utf-8"?>
<!-- Generator: Adobe Illustrator 26.3.1, SVG Export Plug-In . SVG Version: 6.00 Build 0)  -->
<!DOCTYPE svg PUBLIC "-//W3C//DTD SVG 1.1//EN" "http://www.w3.org/Graphics/SVG/1.1/DTD/svg11.dtd" [
	<!ENTITY ns_extend "http://ns.adobe.com/Extensibility/1.0/">
	<!ENTITY ns_ai "http://ns.adobe.com/AdobeIllustrator/10.0/">
	<!ENTITY ns_graphs "http://ns.adobe.com/Graphs/1.0/">
	<!ENTITY ns_vars "http://ns.adobe.com/Variables/1.0/">
	<!ENTITY ns_imrep "http://ns.adobe.com/ImageReplacement/1.0/">
	<!ENTITY ns_sfw "http://ns.adobe.com/SaveForWeb/1.0/">
	<!ENTITY ns_custom "http://ns.adobe.com/GenericCustomNamespace/1.0/">
	<!ENTITY ns_adobe_xpath "http://ns.adobe.com/XPath/1.0/">
]>
<svg version="1.1" id="Layer_1" xmlns:x="&ns_extend;" xmlns:i="&ns_ai;" xmlns:graph="&ns_graphs;"
	 xmlns="http://www.w3.org/2000/svg" xmlns:xlink="http://www.w3.org/1999/xlink" x="0px" y="0px" viewBox="0 0 300 300"
	 style="enable-background:new 0 0 300 300;" xml:space="preserve">
<style type="text/css">
	.st0{fill-rule:evenodd;clip-rule:evenodd;fill:#7A7B7F;}
	.st1{fill-rule:evenodd;clip-rule:evenodd;fill:#A4A4A4;}
	.st2{fill-rule:evenodd;clip-rule:evenodd;fill:#D0D0D0;}
	.st3{fill-rule:evenodd;clip-rule:evenodd;fill:none;}
	.st4{fill-rule:evenodd;clip-rule:evenodd;fill:#DCDCDC;}
	.st5{fill-rule:evenodd;clip-rule:evenodd;fill:#FFFFFF;}
	
		.st6{fill-rule:evenodd;clip-rule:evenodd;fill:none;stroke:#353740;stroke-width:9.8401;stroke-linecap:round;stroke-linejoin:round;stroke-miterlimit:10;}
	.st7{fill:none;stroke:#000000;stroke-width:2.4;stroke-miterlimit:10;}
	.st8{fill:none;stroke:#000000;stroke-miterlimit:10;}
	.st9{fill-rule:evenodd;clip-rule:evenodd;}
	.st10{fill:none;}
	.st11{fill:#F6F8FA;stroke:#D8D8D8;stroke-miterlimit:10;}
	.st12{fill:#004C97;}
	.st13{fill:#FD961F;}
	.st14{fill:none;stroke:#000000;stroke-width:4;stroke-miterlimit:10;}
	.st15{fill:none;stroke:#000000;stroke-width:2;stroke-miterlimit:10;}
	.st16{fill:#FFCC00;}
	.st17{fill:#FFFFFF;}
	.st18{fill:#00AAFF;}
	.st19{fill:#22C000;}
	.st20{fill:#E50580;}
	.st21{fill:#FF00CC;}
	.st22{fill:none;stroke:#FFFFFF;stroke-width:13;stroke-miterlimit:10;}
	.st23{fill:none;stroke:#FFFFFF;stroke-width:13.5649;stroke-miterlimit:10;}
	.st24{fill:#004E96;}
	.st25{fill:none;stroke:#FFFFFF;stroke-width:8.7636;stroke-miterlimit:10;}
	.st26{fill:none;stroke:#FFFFFF;stroke-width:10.0771;stroke-miterlimit:10;}
</style>
<metadata>
	<sfw  xmlns="&ns_sfw;">
		<slices></slices>
		<sliceSourceBounds  bottomLeftOrigin="true" height="4816.1" width="8601.4" x="-3920.5" y="-5562.9"></sliceSourceBounds>
	</sfw>
</metadata>
<circle class="st19" cx="150" cy="150" r="145.7"/>
<g>
	<path class="st17" d="M85.1,205.3v-19.8c0-3.9,1-7.6,3-11c2-3.4,4.8-6,8.3-7.8c6-3.1,12.8-5.7,20.4-7.8c7.6-2.1,15.9-3.2,25-3.2
		c3.5,0,7,0.2,10.4,0.5c3.4,0.4,6.6,0.9,9.8,1.6l-12.4,12.4c-1.3-0.2-2.6-0.4-3.8-0.4c-1.2,0-2.6,0-4,0c-8.4,0-15.9,1-22.6,3
		c-6.7,2-12.1,4.2-16.4,6.6c-1.1,0.6-1.9,1.4-2.6,2.5c-0.7,1.1-1,2.2-1,3.5v5.7h44.3l14.2,14.2H85.1z M181.2,208.1l-24.4-24.4
		l9.9-9.9l14.5,14.5l35.8-35.8l9.9,9.9L181.2,208.1z M141.8,148.6c-7.8,0-14.5-2.8-20-8.3c-5.6-5.6-8.3-12.2-8.3-20s2.8-14.5,8.3-20
		s12.2-8.3,20-8.3c7.8,0,14.5,2.8,20,8.3s8.3,12.2,8.3,20s-2.8,14.5-8.3,20C156.3,145.8,149.6,148.6,141.8,148.6z M143.6,191.1
		L143.6,191.1L143.6,191.1L143.6,191.1L143.6,191.1L143.6,191.1L143.6,191.1z M141.8,134.4c3.9,0,7.2-1.4,10-4.2
		c2.8-2.8,4.2-6.1,4.2-10s-1.4-7.2-4.2-10c-2.8-2.8-6.1-4.2-10-4.2c-3.9,0-7.2,1.4-10,4.2c-2.8,2.8-4.2,6.1-4.2,10s1.4,7.2,4.2,10
		C134.6,133,137.9,134.4,141.8,134.4z M141.8,120.2L141.8,120.2L141.8,120.2L141.8,120.2L141.8,120.2L141.8,120.2L141.8,120.2
		L141.8,120.2L141.8,120.2z"/>
</g>
</svg>
